<?xml version="1.0" encoding="utf-8"?>
<!-- Generator: Adobe Illustrator 19.0.0, SVG Export Plug-In . SVG Version: 6.00 Build 0)  -->
<svg version="1.1" id="Layer_1" xmlns="http://www.w3.org/2000/svg" xmlns:xlink="http://www.w3.org/1999/xlink" x="0px" y="0px"
	 viewBox="0 0 152.1 145.1" style="enable-background:new 0 0 152.1 145.1;" xml:space="preserve">
<style type="text/css">
	.st0{fill:#F04E23;}
	.st1{fill:#FFFFFF;}
</style>
<g id="XMLID_23_">
	<path id="XMLID_33_" class="st0" d="M42.5,142.6c-5.1,0-9.5-4-9.8-9.2l-1.4-20l-7.7-3.2c-2.1-0.9-3.1-3.2-2.3-5.4l8.9-23.2L30,70.9
		c0-0.1,0-0.1,0-0.2C32,47.3,51.9,29,75.4,29c25.1,0,45.6,20.5,45.6,45.6c0,19.1-12,36.2-29.9,42.8l-10.3,18.8c-1.6,3-4.8,5-8.2,5.1
		l-29.8,1.3C42.7,142.6,42.6,142.6,42.5,142.6z M34,71L34.2,82c0,0.3,0,0.5-0.1,0.8L25,106.4c0,0.1,0,0.2,0.1,0.2l8.9,3.7
		c0.7,0.3,1.2,1,1.2,1.7l1.4,21.2c0.2,3.1,3,5.6,6.1,5.4l29.8-1.3c2-0.1,3.9-1.3,4.8-3L88,114.8c0.2-0.4,0.6-0.8,1.1-0.9
		c16.7-5.8,27.9-21.6,27.9-39.3C117,51.7,98.3,33,75.4,33C54,33,35.8,49.7,34,71z"/>
	<path id="XMLID_30_" class="st1" d="M75.4,109.2c-19.1,0-34.7-15.6-34.7-34.7c0-19.1,15.6-34.7,34.7-34.7s34.7,15.6,34.7,34.7
		C110.1,93.6,94.5,109.2,75.4,109.2z M75.4,43.5c-17.1,0-31,13.9-31,31s13.9,31,31,31s31-13.9,31-31S92.5,43.5,75.4,43.5z"/>
	<path id="XMLID_27_" class="st0" d="M79.1,102.8h-6.9c-2.5,0-4.7-2-4.7-4.3v-2c-0.6-0.2-1.4-0.5-2.1-0.9l-1.2,1.3
		c-0.9,0.9-2,1.3-3.1,1.3c-1.2,0-2.3-0.5-3.1-1.3l-4.9-4.9C52.4,91.3,52,90.2,52,89c0-1.2,0.5-2.3,1.3-3.1l1.3-1.3
		c-0.4-0.8-0.7-1.5-1-2.4h-1.8c-2.5,0-4.7-2-4.7-4.3V71c0-2.3,2.2-4.4,4.7-4.4h1.8c0.3-0.9,0.7-1.7,1-2.4L53.2,63
		c-0.8-0.8-1.3-1.9-1.3-3.1c0-1.2,0.4-2.3,1.3-3.1L58,52c1.7-1.7,4.4-1.7,6.1,0l1.4,1.4c0.7-0.3,1.4-0.6,2.1-0.8v-2.1
		c0-2.3,2.2-4.4,4.7-4.4h6.9c2.3,0,4,1.8,4,4.4v2.1c0.9,0.3,1.6,0.6,2.4,1l1.7-1.6c0.8-0.8,1.9-1.2,3-1.2c1.2,0,2.3,0.5,3.1,1.3
		l4.9,4.9c0.8,0.8,1.3,1.9,1.3,3.1c0,1.2-0.5,2.3-1.3,3.1l-1.6,1.6c0.3,0.7,0.6,1.4,0.8,2.1h2.3c2.3,0,4,1.8,4,4.4v6.9
		c0,2.5-1.7,4.3-4,4.3h-2.3c-0.2,0.7-0.5,1.4-0.8,2.1l1.6,1.6c0.8,0.8,1.3,1.9,1.3,3.1c0,1.1-0.5,2.3-1.3,3.1L93.3,97
		c-0.8,0.8-1.9,1.3-3.1,1.3s-2.3-0.5-3.1-1.3l-1.5-1.5c-0.7,0.4-1.5,0.7-2.4,1v2C83.2,101,81.5,102.8,79.1,102.8z M65,91.2
		c0.3,0,0.7,0.1,1,0.3c1.4,0.8,3.3,1.4,4.3,1.8c0.8,0.3,1.3,1,1.3,1.9v3.4c0,0.1,0.4,0.3,0.7,0.3h6.8c0-0.1,0.1-0.2,0.1-0.3V95
		c0-0.9,0.6-1.7,1.5-1.9c1.7-0.4,2.9-1,4.2-1.7c0.8-0.4,1.7-0.3,2.4,0.3l2.6,2.5c0.1,0.1,0.2,0.1,0.3,0.1c0.1,0,0.2,0,0.3-0.1
		l4.9-4.9c0.1-0.1,0.1-0.2,0.1-0.2c0-0.1,0-0.2-0.1-0.2l-2.6-2.6c-0.6-0.6-0.8-1.6-0.3-2.4c0.7-1.2,1.3-2.9,1.7-4.1
		c0.3-0.8,1.1-1.4,1.9-1.4h3.7c0-0.1,0.1-0.2,0.1-0.3V71c0-0.2,0-0.3-0.1-0.4l-3.7,0c-0.9,0-1.6-0.5-1.9-1.3c-0.4-1.2-1-2.9-1.7-4.2
		c-0.4-0.8-0.3-1.8,0.3-2.4l2.6-2.6c0.1-0.1,0.1-0.2,0.1-0.2c0-0.1,0-0.2-0.1-0.2l-4.9-4.9c-0.2-0.2-0.3-0.2-0.5,0l-2.8,2.6
		c-0.6,0.6-1.6,0.7-2.4,0.3c-1.3-0.8-2.5-1.3-4.2-1.7c-0.9-0.2-1.5-1-1.5-1.9v-3.6c0-0.2,0-0.3-0.1-0.4l-6.8,0
		c-0.3,0-0.6,0.3-0.7,0.4l0,3.5c0,0.9-0.5,1.6-1.3,1.9c-0.9,0.3-2.8,1-4.2,1.7c-0.8,0.4-1.8,0.3-2.4-0.4l-2.4-2.4
		c-0.1-0.1-0.3-0.1-0.4,0L56,59.7c-0.1,0.1-0.1,0.1-0.1,0.2c0,0.1,0,0.2,0.1,0.2l2.4,2.4c0.6,0.6,0.8,1.6,0.3,2.4
		c-0.8,1.5-1.4,2.6-1.8,4.2c-0.2,0.9-1,1.5-1.9,1.5h-3.3c-0.3,0-0.6,0.3-0.7,0.4l0,6.8c0,0.1,0.4,0.3,0.7,0.3H55
		c0.9,0,1.7,0.6,1.9,1.5c0.4,1.6,1,2.8,1.8,4.3c0.4,0.8,0.3,1.8-0.3,2.4l-2.3,2.3C56,88.8,56,88.9,56,89c0,0.1,0,0.2,0.1,0.2
		l4.9,4.9c0.2,0.2,0.3,0.2,0.5,0l2.2-2.3C64,91.4,64.5,91.2,65,91.2z"/>
	<path id="XMLID_24_" class="st1" d="M75.5,85.4c-6,0-10.9-4.9-10.9-10.9c0-6,4.9-10.9,10.9-10.9s10.9,4.9,10.9,10.9
		C86.4,80.6,81.5,85.4,75.5,85.4z M75.5,67.6c-3.8,0-6.9,3.1-6.9,6.9c0,3.8,3.1,6.9,6.9,6.9s6.9-3.1,6.9-6.9
		C82.4,70.7,79.3,67.6,75.5,67.6z"/>
</g>
<g id="XMLID_2_">
	<g id="XMLID_21_">
		<path id="XMLID_22_" class="st1" d="M75.8,24.6c-1.1,0-2-0.9-2-2V3.8c0-1.1,0.9-2,2-2s2,0.9,2,2v18.8
			C77.8,23.7,76.9,24.6,75.8,24.6z"/>
	</g>
	<g id="XMLID_18_">
		<path id="XMLID_20_" class="st1" d="M54.2,28.4c-0.8,0-1.5-0.4-1.8-1.2l-4.1-9.4c-0.4-1,0-2.2,1-2.6c1-0.4,2.2,0,2.6,1l4.1,9.4
			c0.4,1,0,2.2-1,2.6C54.8,28.3,54.5,28.4,54.2,28.4z"/>
		<path id="XMLID_19_" class="st1" d="M101.4,136.8c-0.8,0-1.5-0.5-1.8-1.2l-4.7-10.7c-0.4-1,0-2.2,1-2.6c1-0.4,2.2,0,2.6,1
			l4.7,10.7c0.4,1,0,2.2-1,2.6C101.9,136.7,101.7,136.8,101.4,136.8z"/>
	</g>
	<g id="XMLID_15_">
		<path id="XMLID_17_" class="st1" d="M26,57.1c-0.3,0-0.5,0-0.8-0.2L15.8,53c-1-0.4-1.5-1.6-1.1-2.6c0.4-1,1.6-1.5,2.6-1.1l9.4,3.9
			c1,0.4,1.5,1.6,1.1,2.6C27.5,56.6,26.7,57.1,26,57.1z"/>
		<path id="XMLID_16_" class="st1" d="M135,102.7c-0.3,0-0.5-0.1-0.8-0.2L123.5,98c-1-0.4-1.5-1.6-1.1-2.6c0.4-1,1.6-1.5,2.6-1.1
			l10.8,4.5c1,0.4,1.5,1.6,1.1,2.6C136.5,102.2,135.8,102.7,135,102.7z"/>
	</g>
	<g id="XMLID_13_">
		<path id="XMLID_14_" class="st1" d="M123.8,56.5c-0.8,0-1.5-0.4-1.8-1.2c-0.4-1,0-2.2,1-2.6l10.7-4.7c1-0.4,2.2,0,2.6,1
			c0.4,1,0,2.2-1,2.6l-10.7,4.7C124.3,56.5,124,56.5,123.8,56.5z"/>
	</g>
	<g id="XMLID_11_">
		<path id="XMLID_12_" class="st1" d="M97,29.8c-0.3,0-0.5-0.1-0.8-0.2c-1-0.4-1.5-1.6-1-2.6l4.7-10.7c0.4-1,1.6-1.5,2.6-1
			c1,0.4,1.5,1.6,1,2.6l-4.7,10.7C98.5,29.4,97.8,29.8,97,29.8z"/>
	</g>
	<g id="XMLID_8_">
		<path id="XMLID_10_" class="st1" d="M147.9,77.9H129c-1.1,0-2-0.9-2-2s0.9-2,2-2h18.8c1.1,0,2,0.9,2,2S149,77.9,147.9,77.9z"/>
		<path id="XMLID_9_" class="st1" d="M22.5,77.9H3.7c-1.1,0-2-0.9-2-2s0.9-2,2-2h18.8c1.1,0,2,0.9,2,2S23.6,77.9,22.5,77.9z"/>
	</g>
	<g id="XMLID_6_">
		<path id="XMLID_7_" class="st1" d="M113.4,40.2c-0.5,0-1-0.2-1.4-0.6c-0.8-0.8-0.8-2,0-2.8l13.3-13.3c0.8-0.8,2-0.8,2.8,0
			c0.8,0.8,0.8,2,0,2.8l-13.3,13.3C114.5,40,113.9,40.2,113.4,40.2z"/>
	</g>
	<g id="XMLID_3_">
		<path id="XMLID_5_" class="st1" d="M126.7,128.9c-0.5,0-1-0.2-1.4-0.6L112,115c-0.8-0.8-0.8-2,0-2.8s2-0.8,2.8,0l13.3,13.3
			c0.8,0.8,0.8,2,0,2.8C127.8,128.7,127.3,128.9,126.7,128.9z"/>
		<path id="XMLID_4_" class="st1" d="M38.1,40.2c-0.5,0-1-0.2-1.4-0.6L23.4,26.3c-0.8-0.8-0.8-2,0-2.8c0.8-0.8,2-0.8,2.8,0
			l13.3,13.3c0.8,0.8,0.8,2,0,2.8C39.1,40,38.6,40.2,38.1,40.2z"/>
	</g>
</g>
</svg>
