<?xml version="1.0" encoding="utf-8"?>
<!-- Generator: Adobe Illustrator 19.0.0, SVG Export Plug-In . SVG Version: 6.00 Build 0)  -->
<svg version="1.1" id="Layer_1" xmlns="http://www.w3.org/2000/svg" xmlns:xlink="http://www.w3.org/1999/xlink" x="0px" y="0px"
	 viewBox="0 0 162 147.7" style="enable-background:new 0 0 162 147.7;" xml:space="preserve">
<style type="text/css">
	.st0{fill:#FFFFFF;}
	.st1{fill:#F04E23;}
	.st2{fill:#1C252C;}
	.st3{fill:#4996D8;}
	.st4{fill:#DD4935;}
	.st5{fill:#36AC97;}
	.st6{fill:#1E4672;}
</style>
<g id="XMLID_70_">
	<rect id="XMLID_112_" x="66.5" y="114.7" class="st0" width="23" height="23"/>
	<path id="XMLID_109_" class="st1" d="M89.5,137.4h-23c-1,0-1.8-0.8-1.8-1.8v-21c0-1,0.8-1.8,1.8-1.8h23c1,0,1.8,0.8,1.8,1.8v21
		C91.3,136.6,90.5,137.4,89.5,137.4z M68.3,133.9h19.5v-17.4H68.3V133.9z"/>
	<path id="XMLID_106_" class="st1" d="M101.9,145.7H54.1c-1,0-1.8-0.8-1.8-1.8v-3.6c0-3.1,2.6-5.7,5.7-5.7H98c3.1,0,5.7,2.6,5.7,5.7
		v3.6C103.7,144.9,102.9,145.7,101.9,145.7z M55.9,142.2h44.2v-1.9c0-1.2-1-2.2-2.2-2.2H58.1c-1.2,0-2.2,1-2.2,2.2V142.2z"/>
	<path id="XMLID_103_" class="st1" d="M148.2,118.8H7.9c-3.1,0-5.6-2.5-5.6-5.6V21.8c0-3.1,2.5-5.6,5.6-5.6h144.2
		c0.9,0,1.6,0.7,1.6,1.6v95.4C153.7,116.3,151.2,118.8,148.2,118.8z M7.9,19.5c-1.3,0-2.3,1-2.3,2.3v91.5c0,1.3,1,2.3,2.3,2.3h140.3
		c1.3,0,2.3-1,2.3-2.3V19.5H7.9z"/>
	<path id="XMLID_100_" class="st1" d="M145.7,105.6H10.4c-1,0-1.8-0.8-1.8-1.8V24.3c0-1,0.8-1.8,1.8-1.8h135.3c1,0,1.8,0.8,1.8,1.8
		v79.6C147.4,104.8,146.6,105.6,145.7,105.6z M12.1,102.1h131.8V26.1H12.1V102.1z"/>
	<rect id="XMLID_99_" x="139.9" y="107.2" class="st1" width="2.1" height="6.3"/>
	<path id="XMLID_98_" class="st0" d="M101.7,103.9H20.3V10.1c0-3.3,2.7-6,6-6h69.4c3.3,0,6,2.7,6,6V103.9z"/>
	<path id="XMLID_93_" class="st1" d="M101.7,105.7H20.3c-1,0-1.8-0.8-1.8-1.8V10.1c0-4.2,3.5-7.7,7.7-7.7h69.4
		c4.2,0,7.7,3.5,7.7,7.7v93.9C103.4,104.9,102.6,105.7,101.7,105.7z M22.1,102.2h77.8V10.1c0-2.3-1.9-4.2-4.2-4.2H26.3
		c-2.3,0-4.2,1.9-4.2,4.2V102.2z"/>
	<rect id="XMLID_92_" x="20.3" y="4.1" class="st2" width="81.3" height="11.4"/>
	<path id="XMLID_89_" class="st1" d="M101.7,17.3H20.3c-1,0-1.8-0.8-1.8-1.8V4.1c0-1,0.8-1.8,1.8-1.8h81.3c1,0,1.8,0.8,1.8,1.8v11.4
		C103.4,16.5,102.6,17.3,101.7,17.3z M22.1,13.8h77.8V5.9H22.1V13.8z"/>
	<g id="XMLID_81_">
		<rect id="XMLID_88_" x="30.1" y="54.7" class="st3" width="61.9" height="5.4"/>
		<rect id="XMLID_87_" x="30.1" y="24.7" class="st4" width="61.9" height="22.5"/>
		<rect id="XMLID_86_" x="30.1" y="66.6" class="st5" width="23.8" height="5.4"/>
		<rect id="XMLID_85_" x="59.8" y="66.6" class="st4" width="31.4" height="5.4"/>
		<rect id="XMLID_84_" x="30.1" y="78.7" class="st6" width="61.9" height="5.4"/>
		<rect id="XMLID_83_" x="30.1" y="90.7" class="st3" width="17.7" height="5.4"/>
		<rect id="XMLID_82_" x="54.4" y="90.7" class="st4" width="36.8" height="5.4"/>
	</g>
	<path id="XMLID_76_" class="st2" d="M155.5,38.2c1.2,0,1.9-1,1.9-2.2v-6.5c0-1.2-0.7-2.2-1.9-2.2h-3.5c-0.4-1.2-1-2.9-1.8-4.3
		l2.5-2.5c0.4-0.4,0.7-1,0.7-1.6c0-0.6-0.2-1.2-0.7-1.6l-4.6-4.6c-0.9-0.9-2.3-0.9-3.2,0l-2.6,2.5c-1.3-0.8-2.6-1.4-4.5-1.8V9.9
		c0-1.2-0.7-2.2-1.9-2.2h-6.5c-1.2,0-2.5,1-2.5,2.2v3.3c-1.2,0.4-2.9,1-4.3,1.8l-2.2-2.3c-0.9-0.9-2.2-0.9-3.1,0l-4.6,4.6
		c-0.4,0.4-0.6,1-0.6,1.6c0,0.6,0.2,1.2,0.7,1.6l2.3,2.2c-0.8,1.4-1.4,2.7-1.9,4.5h-3.1c-1.2,0-2.5,1-2.5,2.2V36
		c0,1.2,1.3,2.2,2.5,2.2h3.1c0.4,1.8,1.1,3.1,1.9,4.5l-2.2,2.2c-0.4,0.4-0.7,1-0.7,1.6c0,0.6,0.2,1.2,0.7,1.6l4.6,4.6
		c0.9,0.9,2.3,0.9,3.2,0l2.1-2.3c1.4,0.8,3.1,1.4,4.3,1.8v3.2c0,1.2,1.3,2.2,2.5,2.2h6.5c1.2,0,1.9-1,1.9-2.2v-3.3
		c1.8-0.4,3.1-1.1,4.5-1.9l2.5,2.4c0.9,0.9,2.3,0.9,3.2,0l4.6-4.6c0.4-0.4,0.7-1,0.7-1.6c0-0.6-0.2-1.2-0.6-1.6l-2.5-2.5
		c0.7-1.3,1.3-3.1,1.8-4.3H155.5z M132.4,41.2c-4.7,0-8.5-3.8-8.5-8.5c0-4.7,3.8-8.5,8.5-8.5c4.7,0,8.5,3.8,8.5,8.5
		C140.9,37.4,137.1,41.2,132.4,41.2z"/>
	<path id="XMLID_71_" class="st1" d="M135.9,59.5h-6.5c-2.3,0-4.3-1.9-4.3-4v-2c-0.7-0.2-1.4-0.6-2.2-0.9l-1.2,1.3
		c-1.6,1.6-4.1,1.6-5.7,0l-4.6-4.6c-0.8-0.8-1.2-1.8-1.2-2.8c0-1.1,0.4-2.1,1.2-2.8l1.3-1.3c-0.4-0.8-0.7-1.6-1-2.5h-1.8
		c-2.3,0-4.3-1.9-4.3-4v-6.5c0-2.1,2-4,4.3-4h1.8c0.3-0.9,0.7-1.7,1-2.4l-1.3-1.3c-0.7-0.7-1.2-1.8-1.2-2.8c0-1.1,0.4-2.1,1.2-2.8
		l4.6-4.6c1.6-1.6,4-1.6,5.6,0l1.4,1.4c0.7-0.3,1.5-0.6,2.2-0.9V9.9c0-2.1,2-4,4.3-4h6.5c2.1,0,3.7,1.7,3.7,4V12
		c0.9,0.3,1.7,0.6,2.4,1l1.7-1.6c1.5-1.5,4-1.5,5.6,0l4.6,4.6c0.8,0.8,1.2,1.8,1.2,2.8c0,1.1-0.4,2.1-1.2,2.8l-1.6,1.6
		c0.3,0.7,0.6,1.5,0.9,2.1h2.3c2.1,0,3.7,1.7,3.7,4V36c0,2.3-1.5,4-3.7,4h-2.3c-0.3,0.7-0.5,1.5-0.9,2.2l1.6,1.6
		c0.7,0.7,1.2,1.8,1.2,2.8c0,1-0.4,2.1-1.2,2.8l-4.6,4.6c-1.6,1.6-4.1,1.6-5.7,0l-1.5-1.5c-0.7,0.4-1.5,0.7-2.5,1v2
		C139.6,57.8,138,59.5,135.9,59.5z M122.5,48.7c0.3,0,0.6,0.1,0.8,0.2c1.3,0.7,3.1,1.4,4.1,1.7c0.7,0.2,1.2,0.9,1.2,1.7v3.2
		c0,0.1,0.4,0.5,0.8,0.5h6.5c0.1,0,0.2-0.2,0.2-0.5v-3.3c0-0.8,0.6-1.5,1.3-1.7c1.6-0.4,2.8-1,4.1-1.7c0.7-0.4,1.5-0.3,2.1,0.3
		l2.5,2.4c0.2,0.2,0.5,0.2,0.7,0l4.6-4.6c0.1-0.1,0.1-0.2,0.1-0.3c0-0.1,0-0.3-0.1-0.3l-2.5-2.5c-0.6-0.6-0.7-1.4-0.3-2.1
		c0.7-1.2,1.2-2.8,1.6-4c0.2-0.7,0.9-1.2,1.7-1.2h3.5c0.1,0,0.1,0,0.1,0c0,0,0.1-0.2,0.1-0.5v-6.5c0-0.3-0.1-0.5-0.1-0.5l-3.6,0
		c-0.7,0-1.4-0.5-1.7-1.2c-0.4-1.2-1-2.8-1.6-4c-0.4-0.7-0.3-1.5,0.3-2.1l2.5-2.5c0.1-0.1,0.1-0.2,0.1-0.3s0-0.2-0.1-0.3l-4.6-4.6
		c-0.2-0.2-0.5-0.2-0.7,0l-2.6,2.5c-0.6,0.5-1.4,0.6-2.1,0.2c-1.3-0.7-2.4-1.3-4-1.6c-0.8-0.2-1.3-0.9-1.3-1.7V9.9
		c0-0.3-0.1-0.5-0.1-0.5l-6.6,0c-0.4,0-0.8,0.4-0.8,0.5v3.3c0,0.7-0.5,1.4-1.2,1.7c-1.3,0.5-2.8,1-4,1.7c-0.7,0.4-1.6,0.3-2.1-0.3
		l-2.2-2.3c-0.2-0.2-0.4-0.2-0.6,0l-4.6,4.6c-0.1,0.1-0.1,0.2-0.1,0.3c0,0.1,0.1,0.2,0.1,0.3l2.2,2.2c0.6,0.6,0.7,1.4,0.3,2.1
		c-0.8,1.4-1.3,2.5-1.7,4c-0.2,0.8-0.9,1.3-1.7,1.3h-3.1c-0.4,0-0.8,0.3-0.8,0.5V36c0,0.1,0.4,0.5,0.8,0.5h3.1
		c0.8,0,1.5,0.6,1.7,1.3c0.4,1.6,0.9,2.7,1.7,4.1c0.4,0.7,0.3,1.6-0.3,2.1l-2.2,2.2c-0.1,0.1-0.1,0.2-0.1,0.3c0,0.1,0,0.2,0.1,0.3
		l4.6,4.6c0.2,0.2,0.5,0.2,0.7,0l2.1-2.2C121.5,48.9,122,48.7,122.5,48.7z M132.4,43c-5.6,0-10.2-4.6-10.2-10.2
		c0-5.6,4.6-10.2,10.2-10.2s10.2,4.6,10.2,10.2C142.7,38.4,138.1,43,132.4,43z M132.4,26c-3.7,0-6.7,3-6.7,6.7c0,3.7,3,6.7,6.7,6.7
		s6.7-3,6.7-6.7C139.2,29.1,136.1,26,132.4,26z"/>
</g>
</svg>
