<?xml version="1.0" encoding="utf-8"?>
<!-- Generator: Adobe Illustrator 19.0.0, SVG Export Plug-In . SVG Version: 6.00 Build 0)  -->
<svg version="1.1" id="Layer_1" xmlns="http://www.w3.org/2000/svg" xmlns:xlink="http://www.w3.org/1999/xlink" x="0px" y="0px"
	 viewBox="0 0 164.2 132.3" style="enable-background:new 0 0 164.2 132.3;" xml:space="preserve">
<style type="text/css">
	.st0{fill:#FFFFFF;}
	.st1{fill:#F04E23;}
</style>
<g id="XMLID_36_">
	<rect id="XMLID_69_" x="101.2" y="6.9" class="st0" width="9.3" height="7.2"/>
	<path id="XMLID_66_" class="st1" d="M110.5,15.9h-9.3c-1,0-1.8-0.8-1.8-1.8V6.9c0-1,0.8-1.8,1.8-1.8h9.3c1,0,1.8,0.8,1.8,1.8v7.2
		C112.2,15.1,111.5,15.9,110.5,15.9z M103,12.3h5.7V8.7H103V12.3z"/>
	<path id="XMLID_65_" class="st1" d="M39.8,71.5H11.2c-4.7,0-8.6-3.8-8.6-8.6V17c0-4.7,3.8-8.6,8.6-8.6h75c0.9,0,1.7,0.7,1.7,1.7
		s-0.7,1.7-1.7,1.7h-75c-2.9,0-5.3,2.4-5.3,5.3v45.9c0,2.9,2.4,5.3,5.3,5.3h28.5c0.9,0,1.7,0.7,1.7,1.7S40.7,71.5,39.8,71.5z"/>
	<path id="XMLID_62_" class="st1" d="M156.1,107.8h-112c-2.9,0-5.3-2.4-5.3-5.3V40.3c0-2.9,2.4-5.3,5.3-5.3h112
		c2.9,0,5.3,2.4,5.3,5.3v62.2C161.4,105.5,159,107.8,156.1,107.8z M44.1,38.3c-1.1,0-2,0.9-2,2v62.2c0,1.1,0.9,2,2,2h112
		c1.1,0,2-0.9,2-2V40.3c0-1.1-0.9-2-2-2H44.1z"/>
	<path id="XMLID_59_" class="st1" d="M60.5,108H40.4c-1,0-1.8-0.8-1.8-1.8V36.7c0-1,0.8-1.8,1.8-1.8h20.1c1,0,1.8,0.8,1.8,1.8v69.5
		C62.3,107.2,61.5,108,60.5,108z M42.2,104.4h16.5V38.5H42.2V104.4z"/>
	<rect id="XMLID_58_" x="60.5" y="36.7" class="st0" width="13.4" height="69.5"/>
	<path id="XMLID_55_" class="st1" d="M73.9,108H60.5c-1,0-1.8-0.8-1.8-1.8V36.7c0-1,0.8-1.8,1.8-1.8h13.4c1,0,1.8,0.8,1.8,1.8v69.5
		C75.7,107.2,74.9,108,73.9,108z M62.3,104.4h9.8V38.5h-9.8V104.4z"/>
	<rect id="XMLID_54_" x="49.2" y="68.5" class="st0" width="9.6" height="5.9"/>
	<path id="XMLID_51_" class="st1" d="M58.9,76.1h-9.6c-1,0-1.8-0.8-1.8-1.8v-5.9c0-1,0.8-1.8,1.8-1.8h9.6c1,0,1.8,0.8,1.8,1.8v5.9
		C60.6,75.3,59.8,76.1,58.9,76.1z M51,72.6h6.1v-2.3H51V72.6z"/>
	<path id="XMLID_48_" class="st1" d="M142.4,129.7H65.9c-0.9,0-1.7-0.7-1.7-1.7v-10.9c0-0.9,0.7-1.7,1.7-1.7h76.4
		c2.9,0,5.3,2.4,5.3,5.3v3.7C147.6,127.3,145.3,129.7,142.4,129.7z M67.6,126.4h74.8c1.1,0,2-0.9,2-2v-3.7c0-1.1-0.9-2-2-2H67.6
		V126.4z"/>
	<path id="XMLID_45_" class="st1" d="M65.9,129.8c-0.3,0-0.6-0.1-0.8-0.2l-10.4-5.5c-0.6-0.3-0.9-0.9-0.9-1.6c0-0.7,0.4-1.3,1-1.6
		l10.4-5.4c0.5-0.3,1.2-0.3,1.7,0.1c0.5,0.3,0.9,0.9,0.9,1.5V128c0,0.6-0.3,1.2-0.9,1.5C66.6,129.7,66.2,129.8,65.9,129.8z
		 M59.3,122.5l4.8,2.6V120L59.3,122.5z"/>
	<path id="XMLID_44_" class="st1" d="M55.6,124.2h-4c-0.9,0-1.7-0.7-1.7-1.7s0.7-1.7,1.7-1.7h4c0.9,0,1.7,0.7,1.7,1.7
		S56.5,124.2,55.6,124.2z"/>
	<rect id="XMLID_43_" x="74.4" y="112.4" class="st0" width="19.5" height="4.3"/>
	<path id="XMLID_40_" class="st1" d="M93.9,118.5H74.4c-1,0-1.8-0.8-1.8-1.8v-4.3c0-1,0.8-1.8,1.8-1.8h19.5c1,0,1.8,0.8,1.8,1.8v4.3
		C95.7,117.7,94.9,118.5,93.9,118.5z M76.2,115h15.9v-0.8H76.2V115z"/>
	<path id="XMLID_37_" class="st1" d="M102.8,18.5H86.6c-0.9,0-1.7-0.7-1.7-1.7V4.5c0-0.9,0.7-1.7,1.7-1.7h16.1
		c0.9,0,1.7,0.7,1.7,1.7v12.4C104.4,17.8,103.7,18.5,102.8,18.5z M88.3,15.2h12.8V6.1H88.3V15.2z"/>
</g>
</svg>
