<?xml version="1.0" encoding="utf-8"?>
<!-- Generator: Adobe Illustrator 19.0.0, SVG Export Plug-In . SVG Version: 6.00 Build 0)  -->
<svg version="1.1" id="Layer_1" xmlns="http://www.w3.org/2000/svg" xmlns:xlink="http://www.w3.org/1999/xlink" x="0px" y="0px"
	 viewBox="0 0 210 75" style="enable-background:new 0 0 210 75;" xml:space="preserve">
<style type="text/css">
	.st0{fill:#FFFFFF;}
	.st1{fill:#F04F23;}
</style>
<g>
	<g>
		<path class="st0" d="M79.8,20.3l9.3-1.7c0,0.3,0,0.6,0.1,0.8c0.1,0.6,0.1,1.2,0,1.7c3.8-1.9,9.5-4,15-2.1c3.6,1.3,4.8,4.7,5.2,6.4
			c0.4,2.5,0.4,5.3-0.7,11.4l-0.6,3.7c-1,5.7-2.1,9.4-3.3,11c-2,3.5-6.3,5.3-12.6,5.3c-2.3,0-4.2-0.4-5.6-0.7
			c-0.8-0.2-1.5-0.4-2.1-0.7l-0.2,1.3l-2.6,15l-11.4,2l8.1-46.1L79.8,20.3z M91.3,47H92l0.9-0.1c2.2-0.5,3.4-1.9,3.8-4.3l1.5-8.8
			c0.2-1,0.2-1.8,0.1-2.3c-0.2-2.2-1.9-3.3-4.9-2.8c-0.3,0.1-0.8,0.1-1.2,0.2c-0.8,0.2-1.9,0.4-3.1,0.9l-2.7,15.5
			C88,46.4,89.7,47,91.3,47z"/>
		<path class="st0" d="M125.8,40.4l-0.2,1.4c-0.4,2.6,0.1,4.1,1.5,4.7c1.8,0.6,5.2,0.5,5.7,0.5l-1.7,9.8c-1,0.1-1.7,0.1-2.7,0.1
			c-7.8,0-12.3-2.9-13.7-8.7c-0.3-1.6-0.4-3.3-0.3-4.9c0-0.6,0.2-1.3,0.3-1.8l0.1-0.5l6.6-37.5l11.4-2L125.8,40.4z"/>
		<path class="st0" d="M170.3,33.4l-4.1,23.2l-9.2,0c0-0.2,0-0.5-0.1-0.7c-0.1-0.5-0.1-1.1,0-1.6c-3.5,1.8-6.9,2.8-10.3,2.8h-0.9
			c-3.3,0-5.7-1.3-7.1-4c-0.9-2.1-1.2-4.4-0.7-7l0-0.3c0.8-4.6,2.9-7.6,6.1-9.1c1.4-0.9,4.7-1.3,9.7-1.3h5.2L159,34
			c0.5-2.6,0.4-4.1-0.3-4.5c-0.7-0.6-2-0.9-3.8-0.9h-12.6l1.7-9.6h14.1c7,0,11.1,1.8,12.1,5.5C170.9,26.6,170.9,29.6,170.3,33.4z
			 M154,43c-2.1,0-3.5,0.2-4,0.7c-0.4,0.4-0.7,1-0.9,2c-0.4,2.1,0.5,3.1,2.5,3.1c1.4,0,3.3-0.6,5.4-1.6l0.7-4.3H154z"/>
		<path class="st0" d="M208.5,34.5l-3.9,22.1h-11l4.2-24.3c0.4-2.3-0.4-3.8-2.4-4.3c-0.7-0.1-1.4-0.1-2.1-0.1c-1.3,0.2-3,0.5-5,1.6
			l-4.7,27h-11l6.3-36.2l9.4-1.7l0.2,0.7c0.1,0.5,0.3,1,0.4,1.8c0.8-0.4,4.8-2.7,10.2-2.9c4.3-0.2,8,0.4,9.9,5.2
			C209.8,25.5,209.6,28.6,208.5,34.5z"/>
	</g>
	<g>
		<path class="st1" d="M97.4,68.3c0,0.7-0.1,1.3-0.3,1.8c-0.2,0.5-0.6,0.9-1.1,1.2c-0.5,0.3-1,0.4-1.7,0.4h-1.5l1-5.7h1.4
			c0.7,0,1.2,0.2,1.6,0.6C97.2,67,97.4,67.6,97.4,68.3z M94.4,71c0.4,0,0.8-0.1,1.1-0.3c0.3-0.2,0.6-0.5,0.7-0.9
			c0.2-0.4,0.2-0.9,0.2-1.4c0-0.5-0.1-0.8-0.4-1.1c-0.2-0.2-0.5-0.4-1-0.4h-0.5L93.9,71H94.4z"/>
		<path class="st1" d="M101.3,71.8h-2.9l1-5.7h2.9l-0.1,0.8h-2l-0.3,1.5h1.9l-0.1,0.8h-1.9L99.4,71h2L101.3,71.8z"/>
		<path class="st1" d="M106,70.1c0,0.5-0.2,1-0.5,1.3c-0.4,0.3-0.8,0.5-1.5,0.5c-0.5,0-1-0.1-1.3-0.3l0-0.9c0.4,0.3,0.9,0.4,1.3,0.4
			c0.3,0,0.6-0.1,0.8-0.2c0.2-0.2,0.3-0.4,0.3-0.6c0-0.2-0.1-0.3-0.2-0.5c-0.1-0.1-0.3-0.3-0.7-0.5c-0.3-0.2-0.5-0.3-0.6-0.5
			c-0.1-0.1-0.2-0.3-0.3-0.5c-0.1-0.2-0.1-0.4-0.1-0.6c0-0.3,0.1-0.6,0.2-0.9c0.1-0.3,0.4-0.5,0.6-0.6c0.3-0.1,0.6-0.2,0.9-0.2
			c0.5,0,1,0.1,1.4,0.4l-0.3,0.7c-0.4-0.2-0.8-0.3-1.1-0.3c-0.3,0-0.5,0.1-0.6,0.2c-0.2,0.2-0.2,0.3-0.2,0.6c0,0.1,0,0.2,0.1,0.3
			c0,0.1,0.1,0.2,0.2,0.3c0.1,0.1,0.3,0.2,0.5,0.4c0.4,0.3,0.7,0.5,0.8,0.7C105.9,69.5,106,69.8,106,70.1z"/>
		<path class="st1" d="M107.1,71.8l1-5.7h0.9l-1,5.7H107.1z"/>
		<path class="st1" d="M112.4,68.7h1.9l-0.5,2.9c-0.3,0.1-0.5,0.2-0.8,0.2c-0.3,0-0.6,0.1-0.9,0.1c-0.6,0-1.2-0.2-1.5-0.6
			c-0.4-0.4-0.6-0.9-0.6-1.6c0-0.7,0.1-1.3,0.3-1.9c0.2-0.6,0.6-1,1-1.3c0.5-0.3,1-0.5,1.6-0.5c0.3,0,0.5,0,0.8,0.1
			c0.3,0.1,0.5,0.1,0.8,0.3l-0.3,0.8c-0.4-0.2-0.9-0.3-1.3-0.3c-0.4,0-0.7,0.1-1.1,0.3c-0.3,0.2-0.6,0.6-0.7,1
			c-0.2,0.4-0.3,0.9-0.2,1.5c0,0.5,0.1,0.8,0.4,1.1c0.2,0.2,0.5,0.4,1,0.4c0.3,0,0.5,0,0.8-0.1l0.3-1.4h-1L112.4,68.7z"/>
		<path class="st1" d="M119.6,71.8h-1l-1.6-4.5h0l0,0.3c0,0.4-0.1,0.7-0.1,0.8c0,0.2-0.2,1.3-0.6,3.4h-0.8l1-5.7h1l1.6,4.5h0
			c0-0.1,0-0.4,0.1-0.7s0.1-0.6,0.1-0.8l0.5-2.9h0.8L119.6,71.8z"/>
		<path class="st1" d="M126.6,71.8h-2.9l1-5.7h2.9l-0.1,0.8h-2l-0.3,1.5h1.9l-0.1,0.8H125l-0.3,1.8h2L126.6,71.8z"/>
		<path class="st1" d="M135,68.3c0,0.7-0.1,1.3-0.3,1.8c-0.2,0.5-0.6,0.9-1.1,1.2c-0.5,0.3-1,0.4-1.7,0.4h-1.5l1-5.7h1.4
			c0.7,0,1.2,0.2,1.6,0.6C134.8,67,135,67.6,135,68.3z M132,71c0.4,0,0.8-0.1,1.1-0.3c0.3-0.2,0.6-0.5,0.7-0.9
			c0.2-0.4,0.2-0.9,0.2-1.4c0-0.5-0.1-0.8-0.4-1.1c-0.2-0.2-0.5-0.4-1-0.4h-0.5l-0.7,4.1H132z"/>
		<path class="st1" d="M138.8,71.8H136l1-5.7h2.9l-0.1,0.8h-2l-0.3,1.5h1.9l-0.1,0.8h-1.9L137,71h2L138.8,71.8z"/>
		<path class="st1" d="M143.5,70.1c0,0.5-0.2,1-0.5,1.3c-0.4,0.3-0.8,0.5-1.5,0.5c-0.5,0-1-0.1-1.3-0.3l0-0.9
			c0.4,0.3,0.9,0.4,1.3,0.4c0.3,0,0.6-0.1,0.8-0.2c0.2-0.2,0.3-0.4,0.3-0.6c0-0.2-0.1-0.3-0.2-0.5c-0.1-0.1-0.3-0.3-0.7-0.5
			c-0.3-0.2-0.5-0.3-0.6-0.5c-0.1-0.1-0.2-0.3-0.3-0.5c-0.1-0.2-0.1-0.4-0.1-0.6c0-0.3,0.1-0.6,0.2-0.9c0.1-0.3,0.4-0.5,0.6-0.6
			c0.3-0.1,0.6-0.2,0.9-0.2c0.5,0,1,0.1,1.4,0.4l-0.3,0.7c-0.4-0.2-0.8-0.3-1.1-0.3c-0.3,0-0.5,0.1-0.6,0.2
			c-0.2,0.2-0.2,0.3-0.2,0.6c0,0.1,0,0.2,0.1,0.3c0,0.1,0.1,0.2,0.2,0.3c0.1,0.1,0.3,0.2,0.5,0.4c0.4,0.3,0.7,0.5,0.8,0.7
			C143.4,69.5,143.5,69.8,143.5,70.1z"/>
		<path class="st1" d="M147.6,71.8h-2.9l1-5.7h2.9l-0.1,0.8h-2l-0.3,1.5h1.9l-0.1,0.8H146l-0.3,1.8h2L147.6,71.8z"/>
		<path class="st1" d="M153.3,71.8h-1l-1.6-4.5h0l0,0.3c-0.1,0.4-0.1,0.7-0.1,0.8c0,0.2-0.2,1.3-0.6,3.4h-0.8l1-5.7h1l1.6,4.5h0
			c0-0.1,0-0.4,0.1-0.7c0.1-0.4,0.1-0.6,0.1-0.8l0.5-2.9h0.8L153.3,71.8z"/>
		<path class="st1" d="M156.6,70.8c0.2-0.5,0.3-0.9,0.5-1.2l1.6-3.5h0.9l-2.7,5.7h-1l-0.7-5.7h0.9l0.4,3.5c0,0.3,0.1,0.6,0.1,0.9
			L156.6,70.8L156.6,70.8z"/>
		<path class="st1" d="M164.7,68.2c0,0.7-0.1,1.4-0.3,1.9s-0.5,1-0.9,1.3c-0.4,0.3-0.9,0.4-1.4,0.4c-0.6,0-1.1-0.2-1.5-0.6
			c-0.4-0.4-0.6-0.9-0.6-1.6c0-0.7,0.1-1.3,0.3-1.9c0.2-0.6,0.6-1,1-1.3c0.4-0.3,0.9-0.5,1.4-0.5c0.6,0,1.1,0.2,1.5,0.6
			C164.5,67,164.7,67.5,164.7,68.2z M162.6,66.8c-0.3,0-0.7,0.1-0.9,0.4c-0.3,0.2-0.5,0.6-0.6,1c-0.1,0.4-0.2,0.9-0.2,1.4
			c0,0.4,0.1,0.8,0.3,1c0.2,0.2,0.5,0.4,0.9,0.4c0.3,0,0.6-0.1,0.9-0.4c0.3-0.2,0.5-0.6,0.6-1c0.1-0.4,0.2-0.9,0.2-1.5
			c0-0.4-0.1-0.8-0.3-1C163.2,66.9,163,66.8,162.6,66.8z"/>
		<path class="st1" d="M165.7,71.8l1-5.7h0.9l-0.9,4.9h2l-0.1,0.8H165.7z"/>
		<path class="st1" d="M171.4,70.8c0.2-0.5,0.3-0.9,0.5-1.2l1.6-3.5h0.9l-2.7,5.7h-1l-0.7-5.7h0.9l0.4,3.5c0,0.3,0.1,0.6,0.1,0.9
			L171.4,70.8L171.4,70.8z"/>
		<path class="st1" d="M174.6,71.8l1-5.7h0.9l-1,5.7H174.6z"/>
		<path class="st1" d="M179.3,71.8l-0.6-4.7h0c0,0.3-0.1,0.7-0.2,1.3l-0.6,3.4h-0.8l1-5.7h1.2l0.5,4.5h0l2.1-4.5h1.3l-1,5.7h-0.8
			l0.6-3.4c0.1-0.5,0.2-0.9,0.3-1.3h0l-2.3,4.7H179.3z"/>
		<path class="st1" d="M187,71.8h-2.9l1-5.7h2.9l-0.1,0.8h-2l-0.3,1.5h1.9l-0.1,0.8h-1.9l-0.3,1.8h2L187,71.8z"/>
		<path class="st1" d="M192.7,71.8h-1l-1.6-4.5h0l0,0.3c0,0.4-0.1,0.7-0.1,0.8c0,0.2-0.2,1.3-0.6,3.4h-0.8l1-5.7h1l1.6,4.5h0
			c0-0.1,0-0.4,0.1-0.7c0.1-0.4,0.1-0.6,0.1-0.8l0.5-2.9h0.8L192.7,71.8z"/>
		<path class="st1" d="M196.2,71.8h-0.9l0.9-4.9h-1.4l0.1-0.8h3.7l-0.1,0.8H197L196.2,71.8z"/>
		<path class="st1" d="M203.7,68.2c0,0.7-0.1,1.4-0.3,1.9s-0.5,1-0.9,1.3c-0.4,0.3-0.9,0.4-1.4,0.4c-0.6,0-1.1-0.2-1.5-0.6
			c-0.4-0.4-0.6-0.9-0.6-1.6c0-0.7,0.1-1.3,0.3-1.9c0.2-0.6,0.6-1,1-1.3c0.4-0.3,0.9-0.5,1.4-0.5c0.6,0,1.1,0.2,1.5,0.6
			S203.7,67.5,203.7,68.2z M201.6,66.8c-0.3,0-0.7,0.1-0.9,0.4c-0.3,0.2-0.5,0.6-0.6,1c-0.1,0.4-0.2,0.9-0.2,1.4
			c0,0.4,0.1,0.8,0.3,1c0.2,0.2,0.5,0.4,0.9,0.4c0.3,0,0.6-0.1,0.9-0.4c0.3-0.2,0.5-0.6,0.6-1c0.1-0.4,0.2-0.9,0.2-1.5
			c0-0.4-0.1-0.8-0.3-1C202.3,66.9,202,66.8,201.6,66.8z"/>
	</g>
	<path class="st1" d="M2,54.3c1.2,1.5,3.1,2.3,5.2,2.3h28.2c4,0,7.7-3.1,8.4-7.1l2.4-13.7l-5.1,0.9l-2,11.9c-0.3,1.7-2,3.2-3.7,3.2
		H7.2c-0.6,0-1.2-0.2-1.5-0.6c-0.4-0.4-0.5-1-0.4-1.7l2.6-14.8c0.3-1.7,2-3.2,3.7-3.2l48.5,0c3.4,0,6.5-2.6,7.1-6l3.1-17.5
		c0.3-1.8-0.1-3.5-1.2-4.8c-1.1-1.3-2.7-2-4.4-2H53.2c-3.4,0-6.5,2.6-7.1,6l-2.6,14.7l5.1-0.9l2.3-12.9c0.2-1.1,1.3-2,2.3-2h11.5
		c0.2,0,0.6,0.1,0.8,0.3c0.2,0.2,0.2,0.5,0.2,0.9l-3.1,17.5c-0.2,1.1-1.3,2-2.3,2l-48.5,0c-4,0-7.7,3.1-8.4,7.1L0.6,48.7
		C0.2,50.7,0.8,52.8,2,54.3z"/>
</g>
</svg>
